<svg width="17" height="20" viewBox="0 0 17 20" fill="none" xmlns="http://www.w3.org/2000/svg">
<path d="M14.0344 11.2075V8.01965C14.0329 6.59929 13.5289 5.22527 12.6115 4.14092C11.6941 3.05657 10.4226 2.33186 9.0221 2.09513V1.00246C9.0221 0.736588 8.91649 0.481609 8.72849 0.293613C8.54049 0.105616 8.28552 0 8.01965 0C7.75378 0 7.4988 0.105616 7.3108 0.293613C7.12281 0.481609 7.01719 0.736588 7.01719 1.00246V2.09513C5.6167 2.33186 4.34517 3.05657 3.42778 4.14092C2.5104 5.22527 2.00635 6.59929 2.00491 8.01965V11.2075C1.41993 11.4143 0.913236 11.797 0.554296 12.3031C0.195357 12.8092 0.00174378 13.4139 0 14.0344V16.0393C0 16.3052 0.105616 16.5601 0.293613 16.7481C0.48161 16.9361 0.736588 17.0418 1.00246 17.0418H4.15017C4.38102 17.8912 4.88497 18.6411 5.58428 19.1757C6.28359 19.7103 7.13939 20 8.01965 20C8.89991 20 9.75571 19.7103 10.455 19.1757C11.1543 18.6411 11.6583 17.8912 11.8891 17.0418H15.0368C15.3027 17.0418 15.5577 16.9361 15.7457 16.7481C15.9337 16.5601 16.0393 16.3052 16.0393 16.0393V14.0344C16.0376 13.4139 15.8439 12.8092 15.485 12.3031C15.1261 11.797 14.6194 11.4143 14.0344 11.2075ZM4.00982 8.01965C4.00982 6.95618 4.43229 5.93626 5.18427 5.18427C5.93626 4.43229 6.95618 4.00982 8.01965 4.00982C9.08312 4.00982 10.103 4.43229 10.855 5.18427C11.607 5.93626 12.0295 6.95618 12.0295 8.01965V11.027H4.00982V8.01965ZM8.01965 18.0442C7.66976 18.0421 7.32652 17.9485 7.02404 17.7726C6.72156 17.5967 6.47036 17.3448 6.29542 17.0418H9.74387C9.56893 17.3448 9.31774 17.5967 9.01526 17.7726C8.71277 17.9485 8.36953 18.0421 8.01965 18.0442ZM14.0344 15.0368H2.00491V14.0344C2.00491 13.7685 2.11053 13.5135 2.29852 13.3255C2.48652 13.1375 2.7415 13.0319 3.00737 13.0319H13.0319C13.2978 13.0319 13.5528 13.1375 13.7408 13.3255C13.9288 13.5135 14.0344 13.7685 14.0344 14.0344V15.0368Z" fill="#00633B"/>
</svg>
