<svg width="20" height="20" viewBox="0 0 20 20" fill="none" xmlns="http://www.w3.org/2000/svg">
<path d="M18.9766 7.00312C19.1743 7.00312 19.3677 6.94411 19.5321 6.83356C19.6966 6.723 19.8247 6.56586 19.9004 6.38201C19.9761 6.19816 19.9959 5.99586 19.9573 5.80068C19.9188 5.60551 19.8235 5.42623 19.6837 5.28552C19.5438 5.1448 19.3656 5.04898 19.1716 5.01016C18.9777 4.97133 18.7766 4.99126 18.5939 5.06741C18.4111 5.14356 18.255 5.27253 18.1451 5.43799C18.0352 5.60345 17.9766 5.79797 17.9766 5.99697C17.9766 6.26382 18.0819 6.51974 18.2694 6.70843C18.457 6.89712 18.7113 7.00312 18.9766 7.00312ZM15.9766 7.00312C16.1743 7.00312 16.3677 6.94411 16.5321 6.83356C16.6966 6.723 16.8247 6.56586 16.9004 6.38201C16.9761 6.19816 16.9959 5.99586 16.9573 5.80068C16.9188 5.60551 16.8235 5.42623 16.6837 5.28552C16.5438 5.1448 16.3656 5.04898 16.1716 5.01016C15.9777 4.97133 15.7766 4.99126 15.5939 5.06741C15.4111 5.14356 15.255 5.27253 15.1451 5.43799C15.0352 5.60345 14.9766 5.79797 14.9766 5.99697C14.9766 6.26382 15.0819 6.51974 15.2694 6.70843C15.457 6.89712 15.7113 7.00312 15.9766 7.00312ZM12.9766 7.00312C13.1743 7.00312 13.3677 6.94411 13.5321 6.83356C13.6966 6.723 13.8247 6.56586 13.9004 6.38201C13.9761 6.19816 13.9959 5.99586 13.9573 5.80068C13.9188 5.60551 13.8235 5.42623 13.6837 5.28552C13.5438 5.1448 13.3656 5.04898 13.1716 5.01016C12.9777 4.97133 12.7766 4.99126 12.5939 5.06741C12.4111 5.14356 12.255 5.27253 12.1451 5.43799C12.0352 5.60345 11.9766 5.79797 11.9766 5.99697C11.9766 6.26382 12.0819 6.51974 12.2694 6.70843C12.457 6.89712 12.7113 7.00312 12.9766 7.00312ZM17.4166 11.0277C17.1966 11.0277 16.9666 10.9573 16.7466 10.907C16.301 10.8082 15.8632 10.6771 15.4366 10.5146C14.9726 10.3448 14.4627 10.3536 14.0049 10.5393C13.547 10.7251 13.1736 11.0746 12.9566 11.5207L12.7366 11.9735C11.7611 11.426 10.863 10.7492 10.0666 9.9612C9.28723 9.16023 8.61491 8.26054 8.06656 7.28484L8.50656 7.00312C8.94992 6.7847 9.29734 6.40902 9.48195 5.94837C9.66656 5.48771 9.67533 4.97464 9.50656 4.50787C9.34778 4.07766 9.21749 3.63735 9.11656 3.18981C9.06656 2.9584 9.02656 2.73705 8.99656 2.50563C8.87512 1.79692 8.50618 1.15512 7.95618 0.69581C7.40617 0.2365 6.71125 -0.0101358 5.99656 0.000319254H2.99656C2.5738 -0.000237919 2.15571 0.08911 1.76967 0.262506C1.38364 0.435901 1.03839 0.689429 0.756555 1.00647C0.470244 1.33095 0.256828 1.71372 0.130852 2.1287C0.00487658 2.54368 -0.0306973 2.9811 0.0265554 3.41117C0.553267 7.62396 2.45893 11.5404 5.44295 14.5428C8.42698 17.5452 12.3195 19.4626 16.5066 19.9925C16.6364 20.0025 16.7667 20.0025 16.8966 19.9925C17.6922 19.9925 18.4553 19.6745 19.0179 19.1084C19.5805 18.5424 19.8966 17.7746 19.8966 16.9741V13.9556C19.8862 13.2535 19.6328 12.5771 19.1802 12.0427C18.7275 11.5083 18.1039 11.1494 17.4166 11.0277ZM17.9066 17.0646C17.9082 17.2105 17.8783 17.3549 17.8189 17.488C17.7596 17.6211 17.6722 17.7396 17.5628 17.8353C17.4534 17.931 17.3246 18.0016 17.1854 18.0423C17.0462 18.0829 16.8999 18.0927 16.7566 18.0708C13.0227 17.5805 9.55366 15.8654 6.88656 13.1909C4.22155 10.4893 2.5198 6.9764 2.04656 3.19988C2.02483 3.05231 2.03599 2.90173 2.07923 2.75903C2.12247 2.61634 2.1967 2.48511 2.29656 2.37483C2.38915 2.26877 2.50289 2.1835 2.63038 2.12456C2.75787 2.06562 2.89626 2.03434 3.03656 2.03274H6.03656C6.2691 2.02754 6.49618 2.10406 6.6787 2.24914C6.86122 2.39421 6.98777 2.59877 7.03656 2.8276C7.07656 3.10261 7.12656 3.37428 7.18656 3.64258C7.30208 4.17297 7.45581 4.69419 7.64656 5.20211L6.24656 5.85611C6.12685 5.91137 6.01918 5.98988 5.92971 6.08712C5.84025 6.18436 5.77076 6.29843 5.72523 6.42277C5.6797 6.54711 5.65903 6.67927 5.6644 6.81167C5.66978 6.94407 5.7011 7.0741 5.75656 7.19429C7.19576 10.296 9.6738 12.7893 12.7566 14.2373C13 14.338 13.2731 14.338 13.5166 14.2373C13.7647 14.1444 13.9661 13.9563 14.0766 13.7141L14.7066 12.3055C15.2235 12.4915 15.7511 12.6461 16.2866 12.7684C16.5466 12.8287 16.8266 12.879 17.0966 12.9193C17.3221 12.9704 17.5231 13.0986 17.6654 13.282C17.8076 13.4655 17.8822 13.6929 17.8766 13.9254L17.9066 17.0646Z" fill="#00633B"/>
</svg>
