<svg width="20" height="23" viewBox="0 0 20 23" fill="none" xmlns="http://www.w3.org/2000/svg">
<path d="M18.8889 6.69321L12.2222 0.848807C11.6111 0.302195 10.82 0 10 0C9.18011 0 8.38896 0.302195 7.77783 0.848807L1.11121 6.69321C0.758287 7.00885 0.476658 7.39605 0.285072 7.82903C0.0934866 8.26201 -0.00365837 8.73084 0.000105326 9.2043V18.9153C0.000105326 19.7994 0.351292 20.6472 0.976409 21.2724C1.60153 21.8975 2.44937 22.2487 3.33342 22.2487H16.6667C17.5507 22.2487 18.3985 21.8975 19.0237 21.2724C19.6488 20.6472 20 19.7994 20 18.9153V9.19319C20.0021 8.7216 19.9042 8.25491 19.7127 7.82396C19.5212 7.39301 19.2404 7.0076 18.8889 6.69321ZM12.2222 20.0264H7.77783V14.4709C7.77783 14.1763 7.89489 13.8936 8.10326 13.6853C8.31164 13.4769 8.59425 13.3598 8.88893 13.3598H11.1111C11.4058 13.3598 11.6884 13.4769 11.8968 13.6853C12.1052 13.8936 12.2222 14.1763 12.2222 14.4709V20.0264ZM17.7778 18.9153C17.7778 19.21 17.6607 19.4926 17.4523 19.701C17.2439 19.9094 16.9613 20.0264 16.6667 20.0264H14.4444V14.4709C14.4444 13.5869 14.0933 12.739 13.4681 12.1139C12.843 11.4888 11.9952 11.1376 11.1111 11.1376H8.88893C8.00488 11.1376 7.15704 11.4888 6.53192 12.1139C5.90681 12.739 5.55562 13.5869 5.55562 14.4709V20.0264H3.33342C3.03873 20.0264 2.75612 19.9094 2.54775 19.701C2.33937 19.4926 2.22231 19.21 2.22231 18.9153V9.19319C2.22251 9.03543 2.2563 8.87953 2.32144 8.73584C2.38658 8.59215 2.48157 8.46399 2.60009 8.35987L9.26671 2.52657C9.46947 2.34844 9.73014 2.2502 10 2.2502C10.2699 2.2502 10.5306 2.34844 10.7334 2.52657L17.4 8.35987C17.5185 8.46399 17.6135 8.59215 17.6786 8.73584C17.7438 8.87953 17.7776 9.03543 17.7778 9.19319V18.9153Z" fill="black" fill-opacity="0.87"/>
</svg>
