<svg width="18" height="18" viewBox="0 0 18 18" fill="none" xmlns="http://www.w3.org/2000/svg">
<g clip-path="url(#clip0_0_551)">
<path fill-rule="evenodd" clip-rule="evenodd" d="M5.40753 13.6573C5.43873 13.606 5.45022 13.5451 5.43984 13.4859C5.42947 13.4268 5.39794 13.3734 5.35114 13.3358C5.30433 13.2982 5.24544 13.2788 5.18545 13.2814C5.12545 13.284 5.06843 13.3083 5.02503 13.3498C4.83568 13.6093 4.59193 13.8243 4.3108 13.9798C4.02968 14.1352 3.71799 14.2274 3.39753 14.2498C3.0975 14.2459 2.80193 14.1767 2.53127 14.0472C2.26061 13.9177 2.02133 13.7309 1.83003 13.4998C1.64923 13.2016 1.54021 12.8655 1.51158 12.518C1.48294 12.1705 1.53548 11.821 1.66503 11.4973C1.77182 11.1686 1.97912 10.8818 2.25767 10.6773C2.53622 10.4727 2.87196 10.3608 3.21753 10.3573C3.5287 10.348 3.8389 10.3964 4.13253 10.4998C4.41563 10.6046 4.67183 10.7711 4.88253 10.9873C4.89976 11.0114 4.92158 11.0319 4.94674 11.0476C4.9719 11.0633 4.9999 11.0739 5.02915 11.0788C5.0584 11.0837 5.08833 11.0827 5.11722 11.076C5.14611 11.0694 5.1734 11.057 5.19753 11.0398C5.22166 11.0226 5.24216 11.0007 5.25785 10.9756C5.27355 10.9504 5.28414 10.9224 5.28901 10.8932C5.29389 10.8639 5.29296 10.834 5.28627 10.8051C5.27958 10.7762 5.26726 10.7489 5.25003 10.7248C5.00721 10.4304 4.69904 10.1967 4.35003 10.0423C3.99822 9.87818 3.61962 9.77909 3.23253 9.7498C2.73558 9.7133 2.24031 9.84005 1.822 10.1108C1.40369 10.3816 1.08523 10.7815 0.915025 11.2498C0.729059 11.6961 0.655733 12.1813 0.70151 12.6626C0.747287 13.1439 0.910762 13.6066 1.17753 14.0098C1.27328 14.1045 1.38183 14.1853 1.50003 14.2498C1.27745 14.3974 1.07128 14.5684 0.885025 14.7598C0.748333 14.913 0.630029 15.0816 0.532525 15.2623C0.433504 15.4395 0.350669 15.6252 0.285025 15.8173C0.136934 16.257 0.0412721 16.7127 2.53217e-05 17.1748C-0.0112462 17.2373 0.00193001 17.3017 0.0368289 17.3548C0.0717277 17.4078 0.125679 17.4454 0.187525 17.4598C0.220722 17.4674 0.255161 17.4679 0.288552 17.4612C0.321943 17.4545 0.353522 17.4407 0.38119 17.4208C0.408857 17.401 0.43198 17.3755 0.449021 17.346C0.466062 17.3165 0.476631 17.2837 0.480025 17.2498C0.608581 16.8549 0.769113 16.4711 0.960025 16.1023L1.20753 15.6523C1.29003 15.5098 1.38003 15.3673 1.47003 15.2248C1.62534 14.991 1.79308 14.7657 1.97253 14.5498C2.4323 14.7943 2.95456 14.8962 3.47253 14.8423C3.86062 14.7932 4.23383 14.6621 4.56743 14.4578C4.90103 14.2535 5.18739 13.9807 5.40753 13.6573Z" fill="#00633B"/>
<path fill-rule="evenodd" clip-rule="evenodd" d="M17.7527 15.8173C17.687 15.6252 17.6042 15.4395 17.5052 15.2623C17.4077 15.0816 17.2894 14.913 17.1527 14.7598C16.9664 14.5684 16.7603 14.3974 16.5377 14.2498C16.6446 14.1732 16.7405 14.0824 16.8227 13.9798C17.0844 13.5801 17.2451 13.1228 17.2908 12.6472C17.3365 12.1716 17.266 11.692 17.0852 11.2498C16.915 10.7815 16.5965 10.3816 16.1782 10.1108C15.7599 9.84005 15.2646 9.7133 14.7677 9.7498C14.3896 9.77463 14.0189 9.86603 13.6727 10.0198C13.3237 10.1742 13.0155 10.4079 12.7727 10.7023C12.7349 10.7441 12.7152 10.7991 12.718 10.8554C12.7209 10.9117 12.7459 10.9645 12.7877 11.0023C12.8295 11.0401 12.8845 11.0597 12.9408 11.0569C12.997 11.0541 13.0499 11.0291 13.0877 10.9873C13.2984 10.7711 13.5546 10.6046 13.8377 10.4998C14.1318 10.3989 14.442 10.3531 14.7527 10.3648C15.0982 10.3683 15.434 10.4802 15.7125 10.6848C15.9911 10.8893 16.1984 11.1761 16.3052 11.5048C16.438 11.8252 16.4949 12.172 16.4715 12.5181C16.4481 12.8642 16.3449 13.2002 16.1702 13.4998C15.9733 13.72 15.7315 13.8955 15.4611 14.0145C15.1908 14.1335 14.8981 14.1933 14.6027 14.1898C14.2871 14.1746 13.9784 14.0917 13.6976 13.9468C13.4168 13.8018 13.1704 13.5983 12.9752 13.3498C12.9318 13.3083 12.8748 13.284 12.8148 13.2814C12.7548 13.2788 12.6959 13.2982 12.6491 13.3358C12.6023 13.3734 12.5707 13.4268 12.5604 13.4859C12.55 13.5451 12.5615 13.606 12.5927 13.6573C12.8153 13.9879 13.1069 14.2663 13.4474 14.4735C13.7879 14.6806 14.1693 14.8116 14.5652 14.8573C15.0707 14.9037 15.5789 14.8021 16.0277 14.5648C16.2071 14.7807 16.3749 15.006 16.5302 15.2398C16.6202 15.3823 16.7102 15.5248 16.7927 15.6673L17.0402 16.1173C17.2303 16.4813 17.3909 16.86 17.5202 17.2498C17.5256 17.2816 17.5373 17.3119 17.5547 17.3391C17.572 17.3662 17.5947 17.3896 17.6213 17.4078C17.6479 17.426 17.6779 17.4387 17.7095 17.445C17.7411 17.4514 17.7736 17.4513 17.8052 17.4448C17.8654 17.4321 17.9188 17.3974 17.9549 17.3475C17.9909 17.2976 18.0071 17.236 18.0002 17.1748C17.9711 16.7142 17.888 16.2586 17.7527 15.8173Z" fill="#00633B"/>
<path fill-rule="evenodd" clip-rule="evenodd" d="M12.3829 14.2952C12.2655 14.0803 12.1247 13.8791 11.9629 13.6952C11.7108 13.41 11.4235 13.158 11.1079 12.9452C11.4472 12.6187 11.7085 12.2198 11.8721 11.7783C12.0357 11.3367 12.0975 10.8639 12.0529 10.3952C12.051 10.013 11.9737 9.63502 11.8257 9.28271C11.6776 8.93041 11.4616 8.61071 11.19 8.34189C10.9184 8.07306 10.5965 7.86036 10.2427 7.71594C9.88887 7.57152 9.51007 7.49821 9.12792 7.50018C8.29858 7.46963 7.49069 7.7676 6.8798 8.32934C6.26891 8.89107 5.90438 9.6712 5.86542 10.5002C5.8456 11.045 5.99119 11.5831 6.28303 12.0436C6.57486 12.5041 6.99928 12.8655 7.50042 13.0802C7.07557 13.3172 6.67382 13.5934 6.30042 13.9052C5.96382 14.1918 5.67297 14.5282 5.43792 14.9027C5.21974 15.2202 5.06749 15.5784 4.99019 15.9558C4.91289 16.3333 4.91212 16.7224 4.98792 17.1002C4.99687 17.1638 5.03074 17.2213 5.08208 17.26C5.13342 17.2987 5.19802 17.3154 5.26167 17.3064C5.32533 17.2975 5.38282 17.2636 5.42149 17.2123C5.46017 17.1609 5.47687 17.0963 5.46792 17.0327C5.4695 16.4152 5.69311 15.8189 6.09792 15.3527C6.32292 15.0527 6.58542 14.7602 6.84792 14.4752C7.26792 14.0327 7.68792 13.6127 8.07792 13.2752C8.37232 13.3507 8.67415 13.3934 8.97792 13.4027C9.0065 13.4047 9.0352 13.4011 9.06237 13.392C9.08954 13.3829 9.11465 13.3686 9.13625 13.3497C9.15786 13.3309 9.17553 13.308 9.18826 13.2824C9.20099 13.2567 9.20852 13.2288 9.21042 13.2002C9.2125 13.1437 9.19253 13.0887 9.15474 13.0467C9.11694 13.0047 9.06429 12.979 9.00792 12.9752C7.37292 12.8252 6.60042 11.8127 6.57792 10.7252C6.79959 10.8419 7.04134 10.9157 7.29042 10.9427C7.40719 10.9612 7.52615 10.9612 7.64292 10.9427C7.76407 10.9252 7.88252 10.8925 7.99542 10.8452C8.2845 10.745 8.54283 10.5719 8.74542 10.3427C8.74542 10.3427 8.74542 10.2827 8.78292 10.2602L9.06792 10.4102C9.32158 10.5289 9.58845 10.617 9.86292 10.6727C10.3796 10.7556 10.9062 10.7556 11.4229 10.6727C11.4849 11.2256 11.3341 11.7813 11.0012 12.2271C10.6683 12.6728 10.1782 12.9752 9.63042 13.0727C9.56603 13.0802 9.50717 13.1127 9.4665 13.1632C9.42583 13.2137 9.40659 13.2782 9.41292 13.3427C9.41663 13.3743 9.42658 13.4049 9.44221 13.4326C9.45783 13.4603 9.47882 13.4847 9.50395 13.5042C9.52908 13.5238 9.55784 13.5381 9.58857 13.5464C9.61929 13.5548 9.65137 13.5569 9.68292 13.5527C10.0408 13.5234 10.3885 13.4186 10.7029 13.2452C10.9548 13.5205 11.1831 13.8166 11.3854 14.1302C11.4979 14.3027 11.6104 14.4752 11.7154 14.6552C11.8204 14.8352 11.9179 15.0227 12.0154 15.2177C12.2446 15.6743 12.4304 16.1514 12.5704 16.6427C12.5848 16.7061 12.6235 16.7613 12.6782 16.7964C12.733 16.8315 12.7993 16.8436 12.8629 16.8302C12.894 16.8239 12.9236 16.8116 12.9499 16.7938C12.9762 16.7761 12.9987 16.7533 13.0161 16.7268C13.0336 16.7003 13.0456 16.6706 13.0515 16.6394C13.0573 16.6083 13.057 16.5762 13.0504 16.5452C12.9847 16.0183 12.8614 15.5002 12.6829 15.0002C12.6051 14.7564 12.5046 14.5203 12.3829 14.2952ZM8.05542 10.0877H7.69542L7.33542 10.1402C7.09039 10.208 6.8391 10.2507 6.58542 10.2677C6.70942 9.71042 7.03538 9.21882 7.50042 8.88768C7.70817 9.29848 7.99341 9.66521 8.34042 9.96768C8.35272 9.97086 8.36563 9.97086 8.37792 9.96768C8.2767 10.0229 8.1681 10.0633 8.05542 10.0877ZM10.0054 9.93768C9.78944 9.86829 9.57887 9.78306 9.37542 9.68268C9.16904 9.58655 8.97088 9.47367 8.78292 9.34518C8.47113 9.13325 8.18869 8.88107 7.94292 8.59518C8.32285 8.42484 8.73407 8.33544 9.15042 8.33268C9.67226 8.31492 10.1821 8.49151 10.5812 8.82822C10.9802 9.16493 11.2401 9.6378 11.3104 10.1552C10.8681 10.137 10.4297 10.0639 10.0054 9.93768Z" fill="#00633B"/>
<path fill-rule="evenodd" clip-rule="evenodd" d="M9.34546 14.2951C9.34546 14.2375 9.32254 14.1821 9.28175 14.1413C9.24096 14.1006 9.18564 14.0776 9.12796 14.0776C9.07027 14.0776 9.01495 14.1006 8.97416 14.1413C8.93337 14.1821 8.91046 14.2375 8.91046 14.2951C8.84296 14.5651 8.76046 14.8126 8.71546 15.0826C8.70422 15.1974 8.70422 15.3129 8.71546 15.4276C8.708 15.54 8.708 15.6528 8.71546 15.7651C8.71546 16.0351 8.82046 16.2826 8.87296 16.5526C8.87289 16.5845 8.87936 16.616 8.89197 16.6452C8.90459 16.6744 8.92307 16.7008 8.94627 16.7226C8.96947 16.7444 8.99691 16.7612 9.02687 16.7719C9.05683 16.7827 9.08869 16.7872 9.12046 16.7851C9.15262 16.7852 9.18445 16.7787 9.21407 16.7662C9.24368 16.7536 9.27048 16.7353 9.29287 16.7122C9.31526 16.6891 9.33278 16.6618 9.34439 16.6318C9.356 16.6018 9.36146 16.5698 9.36046 16.5376C9.36046 16.2751 9.45796 16.0276 9.48796 15.7876C9.49541 15.6778 9.49541 15.5675 9.48796 15.4576C9.49918 15.3454 9.49918 15.2324 9.48796 15.1201C9.46546 14.8051 9.39046 14.5651 9.34546 14.2951Z" fill="#00633B"/>
<path fill-rule="evenodd" clip-rule="evenodd" d="M10.3273 4.29766L9.4198 3.75016C9.4198 3.75016 9.1948 3.59266 9.1048 3.54766C9.023 3.50687 8.93042 3.49289 8.84022 3.5077C8.75002 3.52251 8.66677 3.56536 8.6023 3.63016C8.3173 3.93766 8.0173 4.22266 7.7248 4.51516C7.2748 4.95766 6.8323 5.38516 6.3598 5.79016C5.82974 6.2319 5.27646 6.64499 4.7023 7.02766C4.67867 7.04244 4.65817 7.06172 4.64198 7.08442C4.6258 7.10711 4.61424 7.13277 4.60798 7.15993C4.60171 7.1871 4.60085 7.21523 4.60545 7.24272C4.61006 7.27021 4.62003 7.29653 4.6348 7.32016C4.64958 7.3438 4.66886 7.3643 4.69156 7.38048C4.71425 7.39667 4.73991 7.40822 4.76707 7.41449C4.79424 7.42076 4.82236 7.42162 4.84986 7.41701C4.87735 7.41241 4.90367 7.40244 4.9273 7.38766C5.71366 6.96135 6.4659 6.4749 7.1773 5.93266C7.80088 5.46769 8.39689 4.96684 8.9623 4.43266L9.8923 4.99516L13.7173 7.50016C13.7722 7.53418 13.8383 7.54538 13.9013 7.53136C13.9644 7.51735 14.0195 7.47924 14.0548 7.42516C14.073 7.39872 14.0857 7.3689 14.0921 7.33746C14.0986 7.30603 14.0986 7.27362 14.0924 7.24215C14.0861 7.21069 14.0735 7.1808 14.0555 7.15427C14.0374 7.12773 14.0143 7.10508 13.9873 7.08766C12.9898 6.39016 12.0673 5.58766 11.0923 4.83766C10.8373 4.65766 10.5823 4.50016 10.3273 4.29766Z" fill="#00633B"/>
<path fill-rule="evenodd" clip-rule="evenodd" d="M4.23044 5.07C4.74044 4.74 5.25044 4.38 5.73044 4.0125C6.48044 3.465 7.23044 2.895 7.93544 2.3325L8.91794 1.5825L9.00044 1.5C9.00044 1.5 9.20294 1.62 9.24044 1.6575C9.50294 1.905 9.75044 2.1525 9.99044 2.4075C10.1104 2.505 10.2379 2.61 10.3654 2.7C10.8705 3.05613 11.3965 3.38171 11.9404 3.675C12.7354 4.14 13.5529 4.5525 14.3404 4.995C14.3675 5.01132 14.3975 5.02213 14.4288 5.02682C14.46 5.0315 14.4919 5.02997 14.5226 5.02231C14.5532 5.01464 14.5821 5.00099 14.6075 4.98215C14.6328 4.9633 14.6542 4.93963 14.6704 4.9125C14.7019 4.85623 14.7109 4.79014 14.6956 4.72752C14.6803 4.66491 14.6418 4.61041 14.5879 4.575C13.8379 4.095 13.0504 3.63 12.2854 3.12C11.7902 2.79294 11.3144 2.43734 10.8604 2.055L9.80294 1.0425C9.67676 0.905968 9.54145 0.778174 9.39794 0.659997C9.3071 0.594885 9.20137 0.553623 9.09044 0.539997C8.99488 0.531821 8.89891 0.549979 8.81294 0.592497C8.67923 0.687021 8.55149 0.789717 8.43044 0.899997L7.44794 1.725C6.75044 2.34 6.09044 3 5.39294 3.5625C4.92794 3.9675 4.46294 4.3125 3.98294 4.7175C3.9552 4.73164 3.93083 4.75158 3.91146 4.77596C3.89209 4.80034 3.87818 4.82859 3.87067 4.85881C3.86317 4.88903 3.86224 4.92051 3.86794 4.95112C3.87365 4.98173 3.88586 5.01075 3.90375 5.03624C3.92165 5.06172 3.9448 5.08306 3.97165 5.09882C3.9985 5.11459 4.02843 5.1244 4.0594 5.1276C4.09037 5.1308 4.12167 5.12732 4.15118 5.11738C4.18069 5.10744 4.20772 5.09128 4.23044 5.07Z" fill="#00633B"/>
</g>
<defs>
<clipPath id="clip0_0_551">
<rect width="18" height="18" fill="white"/>
</clipPath>
</defs>
</svg>
