<svg width="25" height="25" viewBox="0 0 25 25" fill="none" xmlns="http://www.w3.org/2000/svg">
<path d="M12.5 4.80288C16.744 4.80288 20.1971 8.25601 20.1971 12.5C20.1971 16.744 16.744 20.1972 12.5 20.1972C8.25598 20.1972 4.80285 16.744 4.80285 12.5C4.80285 8.25601 8.25598 4.80288 12.5 4.80288ZM12.5 2.8786C7.18608 2.8786 2.87857 7.18611 2.87857 12.5C2.87857 17.8139 7.18608 22.1214 12.5 22.1214C17.8139 22.1214 22.1214 17.8139 22.1214 12.5C22.1214 7.18611 17.8139 2.8786 12.5 2.8786ZM16.3486 10.5757C16.3486 9.55503 15.9431 8.57613 15.2213 7.85439C14.4996 7.13264 13.5207 6.72717 12.5 6.72717C11.4793 6.72717 10.5004 7.13264 9.77864 7.85439C9.05689 8.57613 8.65142 9.55503 8.65142 10.5757H10.5757C10.5757 9.51449 11.4387 8.65145 12.5 8.65145C13.5612 8.65145 14.4243 9.51449 14.4243 10.5757C14.4243 11.637 13.5612 12.5 12.5 12.5C12.2448 12.5 12.0001 12.6014 11.8197 12.7818C11.6392 12.9623 11.5378 13.207 11.5378 13.4622V15.3864H13.4621V14.2886C14.2868 14.0773 15.0178 13.5978 15.5402 12.9258C16.0627 12.2537 16.3471 11.427 16.3486 10.5757ZM13.4621 16.3486H11.5378V18.2729H13.4621V16.3486Z" fill="white"/>
</svg>
