<svg width="29" height="29" viewBox="0 0 29 29" fill="none" xmlns="http://www.w3.org/2000/svg">
<path d="M5 8C5 6.34315 6.34315 5 8 5H26C27.6569 5 29 6.34315 29 8V26C29 27.6569 27.6569 29 26 29H8C6.34315 29 5 27.6569 5 26V8Z" fill="#3C61F2"/>
<path d="M11.136 15.3301C10.7845 14.9786 10.2147 14.9786 9.86321 15.3301C9.51174 15.6815 9.51174 16.2514 9.86321 16.6028L13.13 19.8697C13.4815 20.2211 14.0514 20.2211 14.4028 19.8697L22.136 12.1365C22.4875 11.785 22.4875 11.2152 22.136 10.8637C21.7845 10.5122 21.2147 10.5122 20.8632 10.8637L13.7664 17.9605L11.136 15.3301Z" fill="white"/>
</svg>
