<svg width="35" height="20" viewBox="0 0 35 20" fill="none" xmlns="http://www.w3.org/2000/svg">
<path fill-rule="evenodd" clip-rule="evenodd" d="M0 2.34092C0 1.04806 1.5915 0 3.55472 0H31.4456C33.4088 0 35.0003 1.04806 35.0003 2.34091V16.7465C35.0003 18.0394 33.4088 19.0875 31.4456 19.0875H3.55472C1.5915 19.0875 0 18.0394 0 16.7465V2.34092ZM3.55472 1.08042C2.4976 1.08042 1.64064 1.64476 1.64064 2.34092V16.7465C1.64064 17.4427 2.4976 18.007 3.55472 18.007H31.4456C32.5027 18.007 33.3597 17.4427 33.3597 16.7465V2.34091C33.3597 1.64476 32.5027 1.08042 31.4456 1.08042H3.55472Z" fill="#B2B9C4"/>
<ellipse cx="8.20302" cy="5.04217" rx="3.55472" ry="2.34091" fill="#B2B9C4"/>
<path d="M29.2312 15.8464H6.16954C5.32938 15.8464 4.6483 15.1653 4.6483 14.3252C4.6483 13.8135 4.90553 13.3361 5.33287 13.0547L9.51578 10.3001C10.0506 9.9479 10.7398 9.93311 11.2892 10.262L12.5125 10.9944C13.0553 11.3193 13.7352 11.3091 14.2679 10.968L22.3304 5.80603C22.885 5.45099 23.5965 5.45557 24.1465 5.81772L30.1482 9.77012C30.6166 10.0786 30.8986 10.6018 30.8986 11.1626V14.1791C30.8986 15.0999 30.1521 15.8464 29.2312 15.8464Z" fill="#B2B9C4"/>
</svg>
