<svg width="25" height="25" viewBox="0 0 25 25" fill="none" xmlns="http://www.w3.org/2000/svg">
<path d="M12.5 22.9167C13.6458 22.9167 14.5833 21.9792 14.5833 20.8334H10.4167C10.4167 21.9792 11.3542 22.9167 12.5 22.9167ZM18.75 16.6667V11.4584C18.75 8.26044 17.0521 5.58335 14.0625 4.87502V4.16669C14.0625 3.3021 13.3646 2.60419 12.5 2.60419C11.6354 2.60419 10.9375 3.3021 10.9375 4.16669V4.87502C7.95832 5.58335 6.24999 8.25002 6.24999 11.4584V16.6667L4.16666 18.75V19.7917H20.8333V18.75L18.75 16.6667ZM16.6667 17.7084H8.33332V11.4584C8.33332 8.87502 9.90624 6.77085 12.5 6.77085C15.0937 6.77085 16.6667 8.87502 16.6667 11.4584V17.7084Z" fill="white"/>
</svg>
