<svg width="20" height="20" viewBox="0 0 20 20" fill="none" xmlns="http://www.w3.org/2000/svg">
<path d="M17.9859 8.95817H11.0415V2.01373C11.0415 1.82189 10.8861 1.6665 10.6943 1.6665H9.30539C9.11355 1.6665 8.95817 1.82189 8.95817 2.01373V8.95817H2.01373C1.82189 8.95817 1.6665 9.11355 1.6665 9.30539V10.6943C1.6665 10.8861 1.82189 11.0415 2.01373 11.0415H8.95817V17.9859C8.95817 18.1778 9.11355 18.3332 9.30539 18.3332H10.6943C10.8861 18.3332 11.0415 18.1778 11.0415 17.9859V11.0415H17.9859C18.1778 11.0415 18.3332 10.8861 18.3332 10.6943V9.30539C18.3332 9.11355 18.1778 8.95817 17.9859 8.95817Z" fill="black"/>
</svg>
