<svg width="27" height="20" viewBox="0 0 27 20" fill="none" xmlns="http://www.w3.org/2000/svg">
<path d="M4.89119 18.4155C4.22963 17.7539 4.22963 16.6813 4.89119 16.0197L19.7131 1.19787C20.3746 0.536302 21.4472 0.536305 22.1088 1.19787C22.7704 1.85944 22.7704 2.93205 22.1088 3.59362L7.28694 18.4155C6.62537 19.0771 5.55276 19.0771 4.89119 18.4155Z" fill="#2E2E2E"/>
<path d="M5.39434 17.9707C4.73278 17.3091 4.73278 16.2365 5.39434 15.5749L17.8489 3.12038C18.5105 2.45882 19.5831 2.45882 20.2446 3.12038C20.9062 3.78195 20.9062 4.85456 20.2446 5.51613L7.79009 17.9707C7.12852 18.6322 6.05591 18.6322 5.39434 17.9707Z" fill="#2E2E2E"/>
<rect x="6.27389" y="0.0500195" width="24.2078" height="3.3881" rx="1.6599" transform="rotate(45 6.27389 0.0500195)" fill="#2E2E2E"/>
</svg>
