<svg width="20" height="20" viewBox="0 0 20 20" fill="none" xmlns="http://www.w3.org/2000/svg">
<path d="M13.8424 8.27423L13.843 8.27483C13.8508 8.28257 13.857 8.29179 13.8613 8.30194C13.8655 8.3121 13.8677 8.323 13.8677 8.33399C13.8677 8.34499 13.8655 8.35588 13.8613 8.36604C13.8571 8.37611 13.8509 8.38525 13.8432 8.39295C13.8432 8.39302 13.8431 8.39309 13.843 8.39316L10.269 11.9256L10.2689 11.9255L10.2637 11.9308C10.2559 11.9387 10.2467 11.9449 10.2366 11.9491C10.2264 11.9533 10.2155 11.9555 10.2045 11.9555C10.1935 11.9555 10.1826 11.9533 10.1725 11.9491C10.1623 11.9449 10.1531 11.9387 10.1453 11.9308L10.1432 11.9287L6.60984 8.39533L6.60984 8.39533L6.60766 8.39316C6.59985 8.38541 6.59365 8.3762 6.58942 8.36604C6.58519 8.35589 6.58301 8.345 6.58301 8.33399C6.58301 8.32299 6.58519 8.3121 6.58942 8.30195C6.59365 8.29179 6.59985 8.28257 6.60766 8.27483L6.60826 8.27423C6.62387 8.25871 6.64499 8.25 6.66701 8.25C6.68884 8.25 6.7098 8.25857 6.72538 8.27386C6.7255 8.27398 6.72563 8.27411 6.72576 8.27423L9.67418 11.2227L10.2008 11.7493L10.7311 11.2264L13.7228 8.27636L13.7228 8.27637L13.7249 8.27423C13.7405 8.25871 13.7617 8.25 13.7837 8.25C13.8057 8.25 13.8268 8.25871 13.8424 8.27423Z" stroke="black" stroke-opacity="0.38" stroke-width="1.5"/>
</svg>
