<svg width="19" height="18" viewBox="0 0 19 18" fill="none" xmlns="http://www.w3.org/2000/svg">
<path fill-rule="evenodd" clip-rule="evenodd" d="M14.2494 4.22998H11.1294C9.68194 4.22998 8.23444 4.29748 6.79444 4.37998C4.97944 4.48498 3.15694 4.64248 1.33444 4.76998C0.899439 4.88998 0.959439 5.28748 1.33444 5.34748H6.83944C8.27944 5.34748 9.71194 5.21998 11.1519 5.17498C12.1869 5.12248 13.2144 5.06998 14.2494 5.03998H16.5369C16.9644 4.95748 16.9269 4.41748 16.4244 4.41748C15.6894 4.28248 14.9994 4.24498 14.2494 4.22998Z" fill="#00633B"/>
<path fill-rule="evenodd" clip-rule="evenodd" d="M17.9996 6.25503C18.0349 5.41557 17.972 4.57487 17.8121 3.75003C17.681 3.14407 17.3851 2.58607 16.9571 2.13753C16.551 1.73247 16.0248 1.46942 15.4571 1.38753C14.7367 1.30898 14.01 1.30898 13.2896 1.38753L0.749609 2.13753C0.689777 2.13928 0.63276 2.16333 0.589745 2.20496C0.546731 2.24659 0.520825 2.30278 0.517109 2.36253C0.458067 2.36972 0.403591 2.39794 0.36365 2.44201C0.323709 2.48608 0.300975 2.54306 0.299609 2.60253C0.299609 3.98253 0.0896094 6.99003 0.0371094 9.12753V11.955C0.0746094 12.585 0.0371094 13.455 0.112109 14.1525C0.163145 14.518 0.280036 14.8712 0.457109 15.195C0.781153 15.6836 1.26718 16.0421 1.82961 16.2075C2.94477 16.5027 4.09647 16.6366 5.24961 16.605C7.2891 16.6447 9.32929 16.5796 11.3621 16.41C13.3946 16.245 15.4196 15.99 17.4146 15.66C17.4849 15.6445 17.5468 15.6028 17.5877 15.5436C17.6286 15.4843 17.6455 15.4117 17.635 15.3404C17.6246 15.2691 17.5875 15.2045 17.5313 15.1594C17.4751 15.1143 17.4039 15.0922 17.3321 15.0975C15.3446 15.3525 13.3346 15.54 11.3321 15.6375C9.33336 15.7378 7.33085 15.7378 5.33211 15.6375C4.42388 15.6392 3.51747 15.5564 2.62461 15.39C2.12189 15.3248 1.6631 15.0699 1.34211 14.6775C1.18326 14.373 1.09121 14.038 1.07211 13.695C1.00461 13.065 1.03461 12.39 0.989609 11.8575C0.899609 10.9425 0.862109 10.02 0.839609 9.09753C0.802109 7.21503 0.839609 4.14753 0.839609 2.61003C2.27961 2.61003 6.40461 2.55003 9.64461 2.47503C11.3096 2.47503 12.7346 2.38503 13.3946 2.36253C14.0454 2.29503 14.7014 2.29503 15.3521 2.36253C15.7183 2.41233 16.0608 2.57182 16.3346 2.82003C16.6426 3.14063 16.8555 3.54049 16.9496 3.97503C17.0321 4.27503 17.1821 6.15753 17.1896 6.22503L17.2496 9.63753V12.5625C17.2496 13.2225 17.2496 13.875 17.3171 14.5275C17.319 14.565 17.3283 14.6017 17.3444 14.6355C17.3606 14.6694 17.3832 14.6997 17.4111 14.7248C17.4389 14.7499 17.4715 14.7692 17.5068 14.7817C17.5422 14.7942 17.5797 14.7995 17.6171 14.7975C17.6542 14.7966 17.6907 14.7882 17.7246 14.7729C17.7584 14.7576 17.7888 14.7356 17.8139 14.7083C17.8391 14.6811 17.8585 14.649 17.8711 14.6141C17.8837 14.5792 17.8891 14.5421 17.8871 14.505V12.57C17.8871 11.595 17.9471 10.62 17.9846 9.64503L17.9996 6.25503Z" fill="#00633B"/>
<path fill-rule="evenodd" clip-rule="evenodd" d="M9.05195 11.2502C9.62195 10.9427 10.147 10.5002 10.6345 10.1552C10.807 10.0427 11.0845 9.9077 11.287 9.7577C11.4255 9.66644 11.5452 9.5493 11.6395 9.4127C11.6976 9.33042 11.7288 9.23217 11.7288 9.13145C11.7288 9.03072 11.6976 8.93247 11.6395 8.8502C11.4225 8.60678 11.184 8.38338 10.927 8.1827C10.5497 7.90953 10.1565 7.65908 9.74945 7.4327C9.34111 7.20189 8.91765 6.99893 8.48195 6.8252C8.41793 6.79575 8.34509 6.79176 8.27824 6.81405C8.21138 6.83633 8.1555 6.88322 8.12195 6.9452C8.07261 6.91332 8.01565 6.8952 7.95695 6.8927C7.92345 6.89461 7.89065 6.90312 7.86043 6.91773C7.83022 6.93235 7.80319 6.95279 7.7809 6.97787C7.7586 7.00295 7.74147 7.03219 7.7305 7.06391C7.71953 7.09563 7.71492 7.1292 7.71695 7.1627V9.8777V10.7777C7.71695 10.8752 7.62695 11.0552 7.62695 11.1452C7.62791 11.2684 7.67625 11.3866 7.76195 11.4752C7.8216 11.5401 7.89773 11.5877 7.98226 11.6128C8.06679 11.6379 8.15654 11.6396 8.24195 11.6177C8.52871 11.5361 8.80171 11.4123 9.05195 11.2502ZM8.24945 7.3577C8.6444 7.5463 9.02317 7.76704 9.38195 8.0177C9.74264 8.26703 10.0882 8.5375 10.417 8.8277L10.7245 9.0602L10.1395 9.3902C9.71945 9.6602 9.26945 10.0202 8.79695 10.3202L8.49695 10.5077L8.45195 9.8552L8.24945 7.3502V7.3577Z" fill="#00633B"/>
<path fill-rule="evenodd" clip-rule="evenodd" d="M2.72199 13.575C2.6569 13.5861 2.59864 13.622 2.55948 13.6751C2.52031 13.7283 2.50329 13.7946 2.51199 13.86C2.51656 13.8927 2.52761 13.9241 2.54449 13.9524C2.56137 13.9807 2.58374 14.0054 2.61029 14.025C2.63684 14.0446 2.66704 14.0586 2.6991 14.0663C2.73116 14.0741 2.76444 14.0753 2.79699 14.07C3.22449 14.0325 3.65199 14.01 4.07199 14.0025H4.87449C5.06949 14.8575 5.11449 15.015 5.36199 15C5.60949 14.985 5.62449 14.7975 5.71449 14.01H7.11699C8.26449 13.95 9.41199 13.9125 10.552 13.83C12.2695 13.7175 13.972 13.5375 15.697 13.4175C15.7344 13.4165 15.7713 13.4082 15.8055 13.393C15.8397 13.3777 15.8706 13.3559 15.8963 13.3288C15.9221 13.3016 15.9423 13.2696 15.9557 13.2347C15.9691 13.1997 15.9755 13.1624 15.9745 13.125C15.9706 13.0501 15.9381 12.9795 15.8837 12.9278C15.8292 12.8762 15.757 12.8474 15.682 12.8475C13.942 12.8475 12.2245 12.8475 10.4995 12.9C9.35199 12.945 8.24949 13.0425 7.06449 13.1175L5.71449 13.23C5.71814 13.1751 5.71814 13.1199 5.71449 13.065C5.44449 12 5.24949 12 5.15199 12C5.05449 12 4.86699 12 4.78449 13.14C4.78075 13.1974 4.78075 13.2551 4.78449 13.3125L4.03449 13.38C3.59949 13.44 3.16449 13.5 2.72199 13.575Z" fill="#00633B"/>
</svg>
