<svg width="25" height="25" viewBox="0 0 25 25" fill="none" xmlns="http://www.w3.org/2000/svg">
<path d="M8.76458 11.2792H14.6417C14.7785 11.2792 14.9139 11.3061 15.0403 11.3585C15.1667 11.4108 15.2815 11.4875 15.3782 11.5843C15.475 11.681 15.5517 11.7958 15.604 11.9222C15.6564 12.0486 15.6833 12.184 15.6833 12.3208C15.6833 12.4576 15.6564 12.5931 15.604 12.7195C15.5517 12.8458 15.475 12.9607 15.3782 13.0574C15.2815 13.1541 15.1667 13.2309 15.0403 13.2832C14.9139 13.3356 14.7785 13.3625 14.6417 13.3625H8.76458L9.93333 14.5312C10.1286 14.7267 10.2383 14.9918 10.2382 15.2681C10.2381 15.5444 10.1283 15.8094 9.93281 16.0047C9.73735 16.2 9.4723 16.3097 9.19598 16.3096C8.91966 16.3095 8.65469 16.1996 8.45937 16.0042L5.51354 13.0583C5.41631 12.9618 5.33915 12.847 5.28649 12.7205C5.23384 12.594 5.20673 12.4584 5.20673 12.3214C5.20673 12.1843 5.23384 12.0487 5.28649 11.9222C5.33915 11.7957 5.41631 11.6809 5.51354 11.5844L8.45833 8.63854C8.65365 8.44308 8.91862 8.33322 9.19494 8.33312C9.47126 8.33302 9.73631 8.4427 9.93177 8.63802C10.1272 8.83334 10.2371 9.09831 10.2372 9.37463C10.2373 9.65095 10.1276 9.916 9.93229 10.1115L8.76458 11.2792ZM18.75 3.125C19.0263 3.125 19.2912 3.23475 19.4866 3.4301C19.6819 3.62545 19.7917 3.8904 19.7917 4.16667V20.8333C19.7917 21.1096 19.6819 21.3746 19.4866 21.5699C19.2912 21.7653 19.0263 21.875 18.75 21.875C18.4737 21.875 18.2088 21.7653 18.0134 21.5699C17.8181 21.3746 17.7083 21.1096 17.7083 20.8333V4.16667C17.7083 3.8904 17.8181 3.62545 18.0134 3.4301C18.2088 3.23475 18.4737 3.125 18.75 3.125V3.125Z" fill="white"/>
</svg>
