<svg width="20" height="20" viewBox="0 0 20 20" fill="none" xmlns="http://www.w3.org/2000/svg">
<path d="M14.3712 7.74233C14.215 7.58712 14.0038 7.5 13.7837 7.5C13.5635 7.5 13.3523 7.58712 13.1962 7.74233L10.2045 10.6923L7.25451 7.74233C7.09837 7.58712 6.88716 7.5 6.66701 7.5C6.44685 7.5 6.23564 7.58712 6.07951 7.74233C6.0014 7.8198 5.9394 7.91196 5.8971 8.01351C5.85479 8.11506 5.83301 8.22398 5.83301 8.33399C5.83301 8.444 5.85479 8.55292 5.8971 8.65447C5.9394 8.75602 6.0014 8.84819 6.07951 8.92566L9.61284 12.459C9.69031 12.5371 9.78248 12.5991 9.88403 12.6414C9.98557 12.6837 10.0945 12.7055 10.2045 12.7055C10.3145 12.7055 10.4234 12.6837 10.525 12.6414C10.6265 12.5991 10.7187 12.5371 10.7962 12.459L14.3712 8.92566C14.4493 8.84819 14.5113 8.75602 14.5536 8.65447C14.5959 8.55292 14.6177 8.444 14.6177 8.33399C14.6177 8.22398 14.5959 8.11506 14.5536 8.01351C14.5113 7.91196 14.4493 7.8198 14.3712 7.74233Z" fill="#9F9F9F"/>
</svg>
